<svg width="48" height="48" viewBox="0 0 48 48" fill="none" xmlns="http://www.w3.org/2000/svg">
  <defs>
    <linearGradient id="ddsTile" x1="0" y1="0" x2="48" y2="48" gradientUnits="userSpaceOnUse">
      <stop stop-color="#13233f"/>
      <stop offset="1" stop-color="#0a1120"/>
    </linearGradient>
    <linearGradient id="ddsTeal" x1="14" y1="12" x2="38" y2="36" gradientUnits="userSpaceOnUse">
      <stop stop-color="#7ff2df"/>
      <stop offset="1" stop-color="#14b8a6"/>
    </linearGradient>
  </defs>
  <rect x="0.75" y="0.75" width="46.5" height="46.5" rx="12" fill="url(#ddsTile)" stroke="#2dd4bf" stroke-opacity="0.4" stroke-width="1.5"/>
  <path d="M26 13.5 A 10.5 10.5 0 1 0 26 34.5" fill="none" stroke="url(#ddsTeal)" stroke-width="2.6" stroke-linecap="round"/>
  <path d="M22.6 19.6 L26.4 18.1 M22.6 28.4 L26.4 29.9 M18.5 24 L23 24" stroke="#7ff2df" stroke-width="1.3" stroke-linecap="round" stroke-dasharray="0.1 2.5"/>
  <polygon points="37,24 33.5,17.94 26.5,17.94 23,24 26.5,30.06 33.5,30.06" fill="none" stroke="url(#ddsTeal)" stroke-width="2.2" stroke-linejoin="round"/>
  <circle cx="30" cy="24" r="3.3" fill="none" stroke="url(#ddsTeal)" stroke-width="1.3"/>
  <circle cx="37" cy="24" r="1.35" fill="#5eead4"/>
  <circle cx="33.5" cy="17.94" r="1.35" fill="#5eead4"/>
  <circle cx="26.5" cy="17.94" r="1.35" fill="#5eead4"/>
  <circle cx="33.5" cy="30.06" r="1.35" fill="#5eead4"/>
  <circle cx="26.5" cy="30.06" r="1.35" fill="#5eead4"/>
  <circle cx="23" cy="24" r="2.7" fill="#ffffff"/>
  <circle cx="23" cy="24" r="2.7" fill="none" stroke="#2dd4bf" stroke-width="0.8"/>
</svg>
